<svg width="48" height="48" viewBox="0 0 48 48" fill="none" xmlns="http://www.w3.org/2000/svg">
<path d="M34.5 34.5H13.0875L7.85625 5.7375C7.79504 5.39305 7.61536 5.08083 7.3483 4.85485C7.08123 4.62887 6.74358 4.50335 6.39375 4.5H3" stroke="#10B981" stroke-width="4" stroke-linecap="round" stroke-linejoin="round"/>
<path d="M15 42C17.0711 42 18.75 40.3211 18.75 38.25C18.75 36.1789 17.0711 34.5 15 34.5C12.9289 34.5 11.25 36.1789 11.25 38.25C11.25 40.3211 12.9289 42 15 42Z" stroke="#10B981" stroke-width="4" stroke-linecap="round" stroke-linejoin="round"/>
<path d="M34.5 42C36.5711 42 38.25 40.3211 38.25 38.25C38.25 36.1789 36.5711 34.5 34.5 34.5C32.4289 34.5 30.75 36.1789 30.75 38.25C30.75 40.3211 32.4289 42 34.5 42Z" stroke="#10B981" stroke-width="4" stroke-linecap="round" stroke-linejoin="round"/>
<path d="M11.7188 27H35.2688C35.9699 27.0021 36.6494 26.7571 37.1878 26.3078C37.7262 25.8586 38.089 25.234 38.2125 24.5437L40.5 12H9" stroke="#10B981" stroke-width="4" stroke-linecap="round" stroke-linejoin="round"/>
</svg>
