<svg width="268" height="58" viewBox="0 0 268 58" fill="none" xmlns="http://www.w3.org/2000/svg">
<path d="M34.5 39.5H13.0875L7.85625 10.7375C7.79504 10.3931 7.61536 10.0808 7.3483 9.85485C7.08123 9.62887 6.74358 9.50335 6.39375 9.5H3" stroke="black" stroke-width="4" stroke-linecap="round" stroke-linejoin="round"/>
<path d="M15 47C17.0711 47 18.75 45.3211 18.75 43.25C18.75 41.1789 17.0711 39.5 15 39.5C12.9289 39.5 11.25 41.1789 11.25 43.25C11.25 45.3211 12.9289 47 15 47Z" stroke="black" stroke-width="4" stroke-linecap="round" stroke-linejoin="round"/>
<path d="M34.5 47C36.5711 47 38.25 45.3211 38.25 43.25C38.25 41.1789 36.5711 39.5 34.5 39.5C32.4289 39.5 30.75 41.1789 30.75 43.25C30.75 45.3211 32.4289 47 34.5 47Z" stroke="black" stroke-width="4" stroke-linecap="round" stroke-linejoin="round"/>
<path d="M11.7188 32H35.2688C35.9699 32.0021 36.6494 31.7571 37.1878 31.3078C37.7262 30.8586 38.089 30.234 38.2125 29.5437L40.5 17H9" stroke="black" stroke-width="4" stroke-linecap="round" stroke-linejoin="round"/>
<path d="M86.1818 22.375C85.9432 21.5455 85.608 20.8125 85.1761 20.1761C84.7443 19.5284 84.2159 18.983 83.5909 18.5398C82.9773 18.0852 82.2727 17.7386 81.4773 17.5C80.6932 17.2614 79.8239 17.142 78.8693 17.142C77.0852 17.142 75.517 17.5852 74.1648 18.4716C72.8239 19.358 71.7784 20.6477 71.0284 22.3409C70.2784 24.0227 69.9034 26.0795 69.9034 28.5114C69.9034 30.9432 70.2727 33.0114 71.0114 34.7159C71.75 36.4205 72.7955 37.7216 74.1477 38.6193C75.5 39.5057 77.0966 39.9489 78.9375 39.9489C80.608 39.9489 82.0341 39.6534 83.2159 39.0625C84.4091 38.4602 85.3182 37.6136 85.9432 36.5227C86.5795 35.4318 86.8977 34.142 86.8977 32.6534L88.3977 32.875H79.3977V27.3182H94.0057V31.7159C94.0057 34.7841 93.358 37.4205 92.0625 39.625C90.767 41.8182 88.983 43.5114 86.7102 44.7045C84.4375 45.8864 81.8352 46.4773 78.9034 46.4773C75.6307 46.4773 72.7557 45.7557 70.2784 44.3125C67.8011 42.858 65.8693 40.7955 64.483 38.125C63.108 35.4432 62.4205 32.2614 62.4205 28.5795C62.4205 25.75 62.8295 23.2273 63.6477 21.0114C64.4773 18.7841 65.6364 16.8977 67.125 15.3523C68.6136 13.8068 70.3466 12.6307 72.3239 11.8239C74.3011 11.017 76.4432 10.6136 78.75 10.6136C80.7273 10.6136 82.5682 10.9034 84.2727 11.483C85.9773 12.0511 87.4886 12.858 88.8068 13.9034C90.1364 14.9489 91.2216 16.1932 92.0625 17.6364C92.9034 19.0682 93.4432 20.6477 93.6818 22.375H86.1818ZM99.4134 46V19.8182H106.453V24.3864H106.726C107.203 22.7614 108.004 21.5341 109.129 20.7045C110.254 19.8636 111.55 19.4432 113.016 19.4432C113.379 19.4432 113.771 19.4659 114.192 19.5114C114.612 19.5568 114.982 19.6193 115.3 19.6989V26.142C114.959 26.0398 114.487 25.9489 113.885 25.8693C113.283 25.7898 112.732 25.75 112.232 25.75C111.163 25.75 110.209 25.983 109.368 26.4489C108.538 26.9034 107.879 27.5398 107.391 28.358C106.913 29.1761 106.675 30.1193 106.675 31.1875V46H99.4134ZM129.665 46.5114C127.017 46.5114 124.727 45.9489 122.795 44.8239C120.875 43.6875 119.392 42.108 118.347 40.0852C117.301 38.0511 116.778 35.6932 116.778 33.0114C116.778 30.3068 117.301 27.9432 118.347 25.9205C119.392 23.8864 120.875 22.3068 122.795 21.1818C124.727 20.0455 127.017 19.4773 129.665 19.4773C132.312 19.4773 134.597 20.0455 136.517 21.1818C138.449 22.3068 139.938 23.8864 140.983 25.9205C142.028 27.9432 142.551 30.3068 142.551 33.0114C142.551 35.6932 142.028 38.0511 140.983 40.0852C139.938 42.108 138.449 43.6875 136.517 44.8239C134.597 45.9489 132.312 46.5114 129.665 46.5114ZM129.699 40.8864C130.903 40.8864 131.909 40.5455 132.716 39.8636C133.523 39.1705 134.131 38.2273 134.54 37.0341C134.96 35.8409 135.17 34.483 135.17 32.9602C135.17 31.4375 134.96 30.0795 134.54 28.8864C134.131 27.6932 133.523 26.75 132.716 26.0568C131.909 25.3636 130.903 25.017 129.699 25.017C128.483 25.017 127.46 25.3636 126.631 26.0568C125.813 26.75 125.193 27.6932 124.773 28.8864C124.364 30.0795 124.159 31.4375 124.159 32.9602C124.159 34.483 124.364 35.8409 124.773 37.0341C125.193 38.2273 125.813 39.1705 126.631 39.8636C127.46 40.5455 128.483 40.8864 129.699 40.8864ZM159.102 46.5114C156.42 46.5114 154.114 45.9432 152.182 44.8068C150.261 43.6591 148.784 42.0682 147.75 40.0341C146.727 38 146.216 35.6591 146.216 33.0114C146.216 30.3295 146.733 27.9773 147.767 25.9545C148.813 23.9205 150.295 22.3352 152.216 21.1989C154.136 20.0511 156.42 19.4773 159.068 19.4773C161.352 19.4773 163.352 19.892 165.068 20.7216C166.784 21.5511 168.142 22.7159 169.142 24.2159C170.142 25.7159 170.693 27.4773 170.795 29.5H163.943C163.75 28.1932 163.239 27.142 162.409 26.3466C161.591 25.5398 160.517 25.1364 159.188 25.1364C158.062 25.1364 157.08 25.4432 156.239 26.0568C155.409 26.6591 154.761 27.5398 154.295 28.6989C153.83 29.858 153.597 31.2614 153.597 32.9091C153.597 34.5795 153.824 36 154.278 37.1705C154.744 38.3409 155.398 39.233 156.239 39.8466C157.08 40.4602 158.062 40.767 159.188 40.767C160.017 40.767 160.761 40.5966 161.42 40.2557C162.091 39.9148 162.642 39.4205 163.074 38.7727C163.517 38.1136 163.807 37.3239 163.943 36.4034H170.795C170.682 38.4034 170.136 40.1648 169.159 41.6875C168.193 43.1989 166.858 44.3807 165.153 45.233C163.449 46.0852 161.432 46.5114 159.102 46.5114ZM187.376 46.5114C184.683 46.5114 182.365 45.9659 180.422 44.875C178.49 43.7727 177.001 42.2159 175.956 40.2045C174.911 38.1818 174.388 35.7898 174.388 33.0284C174.388 30.3352 174.911 27.9716 175.956 25.9375C177.001 23.9034 178.473 22.3182 180.371 21.1818C182.28 20.0455 184.518 19.4773 187.087 19.4773C188.814 19.4773 190.422 19.7557 191.911 20.3125C193.411 20.858 194.717 21.6818 195.831 22.7841C196.956 23.8864 197.831 25.2727 198.456 26.9432C199.081 28.6023 199.393 30.5455 199.393 32.7727V34.767H177.286V30.267H192.558C192.558 29.2216 192.331 28.2955 191.876 27.4886C191.422 26.6818 190.791 26.0511 189.984 25.5966C189.189 25.1307 188.263 24.8977 187.206 24.8977C186.104 24.8977 185.126 25.1534 184.274 25.6648C183.433 26.1648 182.774 26.8409 182.297 27.6932C181.82 28.5341 181.575 29.4716 181.564 30.5057V34.7841C181.564 36.0795 181.803 37.1989 182.28 38.142C182.768 39.0852 183.456 39.8125 184.342 40.3239C185.229 40.8352 186.28 41.0909 187.496 41.0909C188.303 41.0909 189.041 40.9773 189.712 40.75C190.382 40.5227 190.956 40.1818 191.433 39.7273C191.911 39.2727 192.274 38.7159 192.524 38.0568L199.24 38.5C198.899 40.1136 198.2 41.5227 197.143 42.7273C196.098 43.9205 194.746 44.8523 193.087 45.5227C191.439 46.1818 189.536 46.5114 187.376 46.5114Z" fill="black"/>
<path d="M209.705 11.0909V46H205.682V11.0909H209.705ZM217.072 46V19.8182H221.095V46H217.072ZM219.118 15.4545C218.334 15.4545 217.658 15.1875 217.089 14.6534C216.533 14.1193 216.254 13.4773 216.254 12.7273C216.254 11.9773 216.533 11.3352 217.089 10.8011C217.658 10.267 218.334 10 219.118 10C219.902 10 220.572 10.267 221.129 10.8011C221.697 11.3352 221.982 11.9773 221.982 12.7273C221.982 13.4773 221.697 14.1193 221.129 14.6534C220.572 15.1875 219.902 15.4545 219.118 15.4545ZM247.009 25.6818L243.395 26.7045C243.168 26.1023 242.832 25.517 242.389 24.9489C241.957 24.3693 241.366 23.892 240.616 23.517C239.866 23.142 238.906 22.9545 237.736 22.9545C236.134 22.9545 234.798 23.3239 233.73 24.0625C232.673 24.7898 232.145 25.7159 232.145 26.8409C232.145 27.8409 232.509 28.6307 233.236 29.2102C233.963 29.7898 235.099 30.2727 236.645 30.6591L240.531 31.6136C242.872 32.1818 244.616 33.0511 245.764 34.2216C246.912 35.3807 247.486 36.875 247.486 38.7045C247.486 40.2045 247.054 41.5455 246.19 42.7273C245.338 43.9091 244.145 44.8409 242.611 45.5227C241.077 46.2045 239.293 46.5455 237.259 46.5455C234.588 46.5455 232.378 45.9659 230.628 44.8068C228.878 43.6477 227.77 41.9545 227.304 39.7273L231.122 38.7727C231.486 40.1818 232.173 41.2386 233.185 41.9432C234.207 42.6477 235.543 43 237.19 43C239.065 43 240.554 42.6023 241.656 41.8068C242.77 41 243.327 40.0341 243.327 38.9091C243.327 38 243.009 37.2386 242.372 36.625C241.736 36 240.759 35.5341 239.44 35.2273L235.077 34.2045C232.679 33.6364 230.918 32.7557 229.793 31.5625C228.679 30.358 228.122 28.8523 228.122 27.0455C228.122 25.5682 228.537 24.2614 229.366 23.125C230.207 21.9886 231.349 21.0966 232.793 20.4489C234.247 19.8011 235.895 19.4773 237.736 19.4773C240.327 19.4773 242.361 20.0455 243.838 21.1818C245.327 22.3182 246.384 23.8182 247.009 25.6818ZM264.928 19.8182V23.2273H251.359V19.8182H264.928ZM255.314 13.5455H259.337V38.5C259.337 39.6364 259.501 40.4886 259.831 41.0568C260.172 41.6136 260.604 41.9886 261.126 42.1818C261.661 42.3636 262.223 42.4545 262.814 42.4545C263.257 42.4545 263.621 42.4318 263.905 42.3864C264.189 42.3295 264.416 42.2841 264.587 42.25L265.405 45.8636C265.132 45.9659 264.751 46.0682 264.263 46.1705C263.774 46.2841 263.155 46.3409 262.405 46.3409C261.268 46.3409 260.155 46.0966 259.064 45.608C257.984 45.1193 257.087 44.375 256.371 43.375C255.666 42.375 255.314 41.1136 255.314 39.5909V13.5455Z" fill="#10B981"/>
</svg>
